# Blender v2.80 (sub 48) OBJ File: 'F22Asset.blend'
# www.blender.org
mtllib F22Asset.mtl
o F22jet
v -0.300000 0.000000 0.800000
v -0.300000 0.660000 1.100000
v -0.300000 0.540000 1.100000
v 1.300000 0.660000 2.800000
v 1.300000 0.540000 2.800000
v 2.000000 0.660000 1.300000
v 2.200000 0.400000 1.300000
v 2.000000 0.660000 2.800000
v 2.000000 0.540000 2.800000
v -1.550000 0.000000 0.700000
v -1.550000 0.660000 0.900000
v -1.550000 0.540000 0.900000
v 2.500000 0.660000 1.300000
v 2.500000 0.540000 1.300000
v 2.400000 0.660000 1.900000
v 2.400000 0.540000 1.900000
v 1.800000 0.200000 0.600000
v 2.200000 0.400000 1.100000
v -1.950000 0.000000 0.356000
v -1.750000 0.700000 0.506000
v -1.950000 0.400000 0.506000
v -2.950000 0.235520 0.231556
v -2.950000 0.656000 0.234296
v -2.950000 0.416960 0.250996
v -3.350000 0.344000 0.072053
v -3.350000 0.456000 0.075053
v -3.350000 0.400000 0.075053
v -2.450000 0.101000 0.291955
v -2.450000 0.750000 0.382705
v -2.450000 0.398000 0.382705
v -2.164227 0.873116 0.278467
v -2.764227 0.786716 0.215444
v -2.464226 0.843116 0.304490
v 2.700000 0.660000 1.300000
v 2.700000 0.540000 1.300000
v 3.100000 0.660000 1.900000
v 3.100000 0.540000 1.900000
v 3.500000 0.660000 1.900000
v 3.500000 0.540000 1.900000
v 3.700000 0.660000 1.200000
v 3.700000 0.540000 1.200000
v 2.600000 0.674361 0.461450
v 2.600000 0.525639 0.461450
v 2.500000 0.730000 0.625000
v 2.500000 0.435000 0.525000
v 1.150000 0.660000 1.200000
v -0.300000 0.830000 0.550000
v 3.100000 0.730000 0.625000
v 3.100000 0.470000 0.625000
v 2.700000 0.730000 0.625000
v 2.600000 0.727414 0.063550
v 2.700000 0.470000 0.625000
v 2.600000 0.472586 0.063550
v 2.900000 0.689190 0.054018
v 2.900000 0.510810 0.054018
v 2.700000 0.727414 0.063550
v 2.700000 0.472586 0.063550
v 2.700000 0.674361 0.461450
v 2.700000 0.525639 0.461450
v 2.000000 0.830000 0.650000
v 2.000000 0.786406 0.432030
v 2.000000 0.806957 0.223993
v -0.300000 0.790105 0.381211
v -0.300000 0.913189 0.176838
v 2.500000 0.838941 0.160280
v 2.500000 0.829008 0.367655
v -1.550000 0.730000 0.450000
v -1.550000 0.765000 0.225000
v -1.550000 0.695000 0.675000
v 0.850000 0.830000 0.600000
v 0.850000 0.788255 0.406621
v 2.000000 0.745000 0.975000
v 2.500000 0.695000 0.962500
v 2.000000 0.787500 0.812500
v 2.500000 0.740000 0.793750
v 2.700000 0.695000 0.962500
v 2.700000 0.712500 0.793750
v 3.250000 0.712500 0.793750
v 2.537916 1.632416 0.685708
v 2.337916 1.632416 0.698208
v 2.737916 1.632416 0.685708
v 3.037916 1.632416 0.685708
v 3.037916 1.632416 0.770083
v 2.337916 1.632416 0.779458
v 2.537916 1.632416 0.770083
v 2.737916 1.632416 0.770083
v -0.300000 0.000000 -0.800000
v -0.300000 0.660000 -1.100000
v -0.300000 0.000000 0.000000
v -0.300000 0.900000 0.000000
v -1.750000 0.800000 0.000000
v -0.300000 0.540000 -1.100000
v 1.300000 0.660000 -2.800000
v 1.300000 0.540000 -2.800000
v 2.000000 0.900000 0.000000
v 2.000000 0.660000 -1.300000
v 2.000000 0.400000 0.000000
v 2.200000 0.400000 -1.300000
v 2.000000 0.660000 -2.800000
v 2.000000 0.540000 -2.800000
v -1.550000 0.000000 0.000000
v -1.550000 0.800000 0.000000
v -1.550000 0.000000 -0.700000
v -1.550000 0.660000 -0.900000
v -1.550000 0.540000 -0.900000
v -1.950000 0.000000 0.000000
v 2.500000 0.900000 0.000000
v 2.500000 0.660000 -1.300000
v 2.500000 0.400000 0.000000
v 2.500000 0.540000 -1.300000
v 2.400000 0.660000 -1.900000
v 2.400000 0.540000 -1.900000
v 2.200000 0.400000 0.000000
v 1.800000 0.200000 0.000000
v 1.800000 0.200000 -0.600000
v 2.200000 0.400000 -1.100000
v -1.950000 0.000000 -0.356000
v -1.750000 0.700000 -0.506000
v -1.950000 0.400000 -0.506000
v -2.950000 0.656000 0.000000
v -2.950000 0.235520 0.000000
v -2.950000 0.235520 -0.231556
v -2.950000 0.656000 -0.234296
v -2.950000 0.416960 -0.250996
v -3.350000 0.456000 0.000000
v -3.350000 0.344000 0.000000
v -3.350000 0.344000 -0.072053
v -3.350000 0.456000 -0.075053
v -3.350000 0.400000 -0.075053
v -2.450000 0.101000 0.000000
v -2.450000 0.101000 -0.291955
v -2.450000 0.750000 -0.382705
v -2.450000 0.398000 -0.382705
v -2.164227 0.873116 0.000000
v -2.164227 0.873116 -0.278467
v -2.764227 0.786716 0.000000
v -2.764227 0.786716 -0.215444
v -2.464226 0.843116 -0.304490
v -2.464226 0.843116 0.000000
v 2.700000 0.800000 0.000000
v 2.700000 0.660000 -1.300000
v 2.700000 0.400000 0.000000
v 2.700000 0.540000 -1.300000
v 3.100000 0.660000 -1.900000
v 3.100000 0.540000 -1.900000
v 3.500000 0.660000 -1.900000
v 3.500000 0.540000 -1.900000
v 3.700000 0.660000 -1.200000
v 3.700000 0.540000 -1.200000
v 2.600000 0.674361 -0.461450
v 2.600000 0.525639 -0.461450
v 2.500000 0.730000 -0.625000
v 2.500000 0.435000 -0.525000
v 1.150000 0.660000 -1.200000
v -0.300000 0.830000 -0.550000
v 3.100000 0.730000 -0.625000
v 3.100000 0.470000 -0.625000
v 2.700000 0.730000 -0.625000
v 2.600000 0.727414 -0.063550
v 2.700000 0.470000 -0.625000
v 2.600000 0.472586 -0.063550
v 2.900000 0.689190 -0.054018
v 2.900000 0.510810 -0.054018
v 2.900000 0.740000 0.000000
v 2.900000 0.460000 0.000000
v 2.700000 0.727414 -0.063550
v 2.700000 0.472586 -0.063550
v 2.700000 0.674361 -0.461450
v 2.700000 0.525639 -0.461450
v 2.000000 0.830000 -0.650000
v 2.000000 0.786406 -0.432030
v 2.000000 0.806957 -0.223993
v -0.300000 0.790105 -0.381211
v -0.300000 0.913189 -0.176838
v 2.500000 0.838941 -0.160280
v 2.500000 0.829008 -0.367655
v -1.550000 0.730000 -0.450000
v -1.550000 0.765000 -0.225000
v -1.550000 0.695000 -0.675000
v 0.850000 0.830000 -0.600000
v 0.850000 0.788255 -0.406621
v 2.000000 0.745000 -0.975000
v 2.500000 0.695000 -0.962500
v 2.000000 0.787500 -0.812500
v 2.500000 0.740000 -0.793750
v 2.700000 0.695000 -0.962500
v 2.700000 0.712500 -0.793750
v 3.250000 0.712500 -0.793750
v 2.537916 1.632416 -0.685708
v 2.337916 1.632416 -0.698208
v 2.737916 1.632416 -0.685708
v 3.037916 1.632416 -0.685708
v 3.037916 1.632416 -0.770083
v 2.337916 1.632416 -0.779458
v 2.537916 1.632416 -0.770083
v 2.737916 1.632416 -0.770083
vt 0.250000 0.500000
vt 0.250000 0.750000
vt 0.250000 0.750000
vt 0.250000 0.500000
vt 0.000000 0.000000
vt 0.000000 0.000000
vt 0.000000 0.000000
vt 0.000000 0.000000
vt 0.250000 0.500000
vt 0.375000 0.500000
vt 0.375000 0.750000
vt 0.250000 0.750000
vt 0.750000 0.750000
vt 0.625000 0.875000
vt 0.000000 0.000000
vt 0.000000 0.000000
vt 0.000000 0.000000
vt 0.000000 0.000000
vt 0.750000 0.500000
vt 0.500000 0.875000
vt 0.625000 0.875000
vt 0.500000 0.875000
vt 0.375000 0.875000
vt 0.375000 0.875000
vt 0.375000 0.500000
vt 0.500000 0.500000
vt 0.500000 0.750000
vt 0.375000 0.750000
vt 0.000000 0.000000
vt 0.000000 0.000000
vt 0.000000 0.000000
vt 0.000000 0.000000
vt 0.000000 0.000000
vt 0.000000 0.000000
vt 0.000000 0.000000
vt 0.500000 0.750000
vt 0.000000 0.000000
vt 0.625000 0.500000
vt 0.625000 0.500000
vt 0.625000 0.538162
vt 0.625000 0.580630
vt 0.625000 0.625000
vt 0.625000 0.750000
vt 0.625000 0.750000
vt 0.500000 0.750000
vt 0.500000 0.750000
vt 0.625000 0.750000
vt 0.250000 0.750000
vt 0.250000 0.500000
vt 0.000000 0.000000
vt 0.000000 0.000000
vt 0.156250 0.187500
vt 0.000000 0.000000
vt 0.000000 0.000000
vt 0.156250 0.187500
vt 0.000000 0.000000
vt 0.000000 0.000000
vt 0.000000 0.000000
vt 0.000000 0.000000
vt 0.000000 0.000000
vt 0.500000 0.875000
vt 0.625000 0.875000
vt 0.625000 0.875000
vt 0.500000 0.875000
vt 0.375000 0.875000
vt 0.375000 0.875000
vt 0.250000 0.750000
vt 0.250000 0.500000
vt 0.500000 0.875000
vt 0.375000 0.875000
vt 0.750000 0.750000
vt 0.750000 0.500000
vt 0.750000 0.500000
vt 0.750000 0.750000
vt 0.625000 0.875000
vt 0.625000 0.625000
vt 0.625000 0.625000
vt 0.625000 0.625000
vt 0.500000 0.750000
vt 0.000000 0.000000
vt 0.625000 0.750000
vt 0.500000 0.750000
vt 0.625000 0.750000
vt 0.500000 0.750000
vt 0.625000 0.750000
vt 0.500000 0.750000
vt 0.625000 0.750000
vt 0.312500 0.375000
vt 0.156250 0.187500
vt 0.000000 0.000000
vt 0.051384 0.041108
vt 0.024271 0.019416
vt 0.087380 0.069904
vt 0.461965 0.369572
vt 0.312500 0.312500
vt 0.000000 0.000000
vt 0.625000 0.625000
vt 0.625000 0.750000
vt 0.625000 0.687500
vt 0.625000 0.656250
vt 0.625000 0.625000
vt 0.051384 0.041108
vt 0.461965 0.369572
vt 0.087380 0.069904
vt 0.024271 0.019416
vt 0.000000 0.000000
vt 0.087380 0.069904
vt 0.461965 0.369572
vt 0.625000 0.500000
vt 0.625000 0.583083
vt 0.625000 0.584861
vt 0.625000 0.586639
vt 0.625000 0.543076
vt 0.625000 0.500000
vt 0.625000 0.500000
vt 0.625000 0.540190
vt 0.312500 0.312500
vt 0.468750 0.468750
vt 0.468750 0.468750
vt 0.156250 0.187500
vt 0.468750 0.468750
vt 0.468750 0.468750
vt 0.000000 0.000000
vt 0.625000 0.656250
vt 0.250000 0.750000
vt 0.250000 0.750000
vt 0.000000 0.000000
vt 0.000000 0.000000
vt 0.000000 0.000000
vt 0.000000 0.000000
vt 0.250000 0.750000
vt 0.375000 0.750000
vt 0.750000 0.750000
vt 0.000000 0.000000
vt 0.000000 0.000000
vt 0.000000 0.000000
vt 0.625000 0.875000
vt 0.500000 0.875000
vt 0.500000 0.875000
vt 0.625000 0.875000
vt 0.375000 0.875000
vt 0.375000 0.875000
vt 0.375000 0.750000
vt 0.500000 0.750000
vt 0.000000 0.000000
vt 0.000000 0.000000
vt 0.000000 0.000000
vt 0.000000 0.000000
vt 0.000000 0.000000
vt 0.000000 0.000000
vt 0.000000 0.000000
vt 0.500000 0.750000
vt 0.000000 0.000000
vt 0.625000 0.625000
vt 0.625000 0.580630
vt 0.625000 0.538162
vt 0.625000 0.750000
vt 0.625000 0.750000
vt 0.625000 0.750000
vt 0.500000 0.750000
vt 0.500000 0.750000
vt 0.250000 0.750000
vt 0.000000 0.000000
vt 0.000000 0.000000
vt 0.156250 0.187500
vt 0.156250 0.187500
vt 0.000000 0.000000
vt 0.000000 0.000000
vt 0.000000 0.000000
vt 0.000000 0.000000
vt 0.500000 0.875000
vt 0.500000 0.875000
vt 0.625000 0.875000
vt 0.625000 0.875000
vt 0.375000 0.875000
vt 0.375000 0.875000
vt 0.250000 0.750000
vt 0.375000 0.875000
vt 0.500000 0.875000
vt 0.750000 0.750000
vt 0.750000 0.750000
vt 0.625000 0.875000
vt 0.625000 0.625000
vt 0.625000 0.625000
vt 0.625000 0.625000
vt 0.000000 0.000000
vt 0.500000 0.750000
vt 0.625000 0.750000
vt 0.625000 0.750000
vt 0.500000 0.750000
vt 0.625000 0.750000
vt 0.500000 0.750000
vt 0.625000 0.750000
vt 0.500000 0.750000
vt 0.312500 0.375000
vt 0.156250 0.187500
vt 0.000000 0.000000
vt 0.051384 0.041108
vt 0.461965 0.369572
vt 0.087380 0.069904
vt 0.024271 0.019416
vt 0.312500 0.312500
vt 0.625000 0.625000
vt 0.625000 0.625000
vt 0.625000 0.656250
vt 0.625000 0.687500
vt 0.625000 0.750000
vt 0.051384 0.041108
vt 0.461965 0.369572
vt 0.087380 0.069904
vt 0.024271 0.019416
vt 0.087380 0.069904
vt 0.461965 0.369572
vt 0.625000 0.583083
vt 0.625000 0.586639
vt 0.625000 0.584861
vt 0.625000 0.543076
vt 0.625000 0.540190
vt 0.312500 0.312500
vt 0.468750 0.468750
vt 0.468750 0.468750
vt 0.468750 0.468750
vt 0.156250 0.187500
vt 0.468750 0.468750
vt 0.000000 0.000000
vt 0.625000 0.656250
vt 0.625000 0.875000
vt 0.625000 0.875000
vt 0.625000 0.875000
vt 0.750000 0.750000
vt 0.750000 0.500000
vt 0.750000 0.500000
vt 0.750000 0.750000
vt 0.750000 0.750000
vt 0.750000 0.500000
vt 0.625000 0.875000
vt 0.625000 0.875000
vt 0.625000 0.875000
vt 0.750000 0.750000
vt 0.750000 0.750000
vt 0.750000 0.750000
vn -0.2598 -0.9657 0.0000
vn 0.0476 0.9968 -0.0645
vn 0.0000 -1.0000 0.0000
vn -0.0670 0.9835 0.1679
vn -0.7629 0.3633 0.5348
vn -0.6263 -0.2720 0.7306
vn 0.4472 -0.8944 0.0000
vn 0.0000 0.0000 -1.0000
vn -0.7282 0.0000 0.6854
vn -0.1083 -0.4177 0.9021
vn 0.2636 0.9473 0.1819
vn -0.1580 0.0000 0.9874
vn -0.9864 0.0000 -0.1644
vn -0.3284 0.9382 -0.1095
vn -0.9138 0.0000 -0.4061
vn 0.8561 0.1389 -0.4977
vn 0.0387 -0.7431 0.6680
vn 0.0948 -0.9955 0.0000
vn 0.0559 0.9984 0.0000
vn -0.1934 0.9797 -0.0528
vn -0.2715 0.0272 0.9620
vn -0.2164 -0.2191 0.9514
vn -0.2617 -0.9651 0.0000
vn -0.3936 -0.0865 0.9152
vn -0.4472 0.8944 0.0000
vn -0.3978 0.0518 0.9160
vn -1.0000 0.0000 0.0000
vn -0.2050 -0.3196 0.9251
vn -0.1986 0.0609 0.9782
vn -0.1980 -0.9802 0.0000
vn -0.0429 0.0731 -0.9964
vn -0.0568 0.9912 -0.1196
vn 0.0000 0.0000 1.0000
vn -0.8321 0.0000 0.5547
vn 0.9615 0.0000 0.2747
vn 0.0032 0.9988 0.0493
vn 1.0000 0.0000 0.0000
vn 0.0000 0.9947 0.1032
vn -0.0643 0.9938 -0.0907
vn -0.0181 0.9604 0.2782
vn -0.0038 0.9986 -0.0536
vn 0.1835 -0.6781 0.7117
vn 0.1835 0.6781 0.7117
vn 0.0476 0.0000 0.9989
vn 0.0000 -0.9912 -0.1322
vn 0.0000 0.9912 -0.1322
vn 0.0672 0.9910 0.1155
vn 0.0077 0.9775 -0.2110
vn 0.0206 0.9805 0.1953
vn 0.0156 0.9442 0.3289
vn -0.0649 0.9952 0.0730
vn -0.0060 0.9281 0.3722
vn -0.0976 0.9938 0.0539
vn -0.0619 0.9366 0.3448
vn -0.0788 0.9968 -0.0124
vn -0.0598 0.9650 0.2553
vn 0.0514 0.9827 0.1780
vn 0.1017 0.9618 0.2541
vn 0.0674 0.9810 0.1817
vn 0.0018 0.0260 0.9997
vn 0.6940 0.0473 -0.7184
vn 0.0000 1.0000 0.0000
vn 0.0000 0.0671 -0.9977
vn 0.0417 0.0236 0.9989
vn -0.9234 0.3782 0.0659
vn 0.0000 0.0257 0.9997
vn 0.0476 0.9968 0.0645
vn -0.0670 0.9835 -0.1679
vn -0.7629 0.3633 -0.5348
vn -0.6263 -0.2720 -0.7306
vn -0.7282 0.0000 -0.6854
vn -0.1083 -0.4177 -0.9021
vn 0.2636 0.9473 -0.1819
vn -0.1580 0.0000 -0.9874
vn -0.9864 0.0000 0.1644
vn -0.3284 0.9382 0.1095
vn -0.9138 0.0000 0.4061
vn 0.8561 0.1389 0.4977
vn 0.0387 -0.7431 -0.6680
vn -0.1934 0.9797 0.0528
vn -0.2715 0.0272 -0.9620
vn -0.2164 -0.2191 -0.9514
vn -0.3936 -0.0865 -0.9152
vn -0.3978 0.0518 -0.9160
vn -0.2050 -0.3196 -0.9251
vn -0.1986 0.0609 -0.9782
vn -0.0429 0.0731 0.9964
vn -0.0568 0.9912 0.1196
vn -0.8321 0.0000 -0.5547
vn 0.9615 0.0000 -0.2747
vn 0.0032 0.9988 -0.0493
vn 0.0000 0.9947 -0.1032
vn -0.0643 0.9938 0.0907
vn -0.0181 0.9604 -0.2782
vn -0.0038 0.9986 0.0536
vn 0.1835 -0.6781 -0.7117
vn 0.1835 0.6781 -0.7117
vn 0.0476 0.0000 -0.9989
vn 0.0000 -0.9912 0.1322
vn 0.0000 0.9912 0.1322
vn 0.0672 0.9910 -0.1155
vn 0.0077 0.9775 0.2110
vn 0.0206 0.9805 -0.1953
vn 0.0156 0.9442 -0.3289
vn -0.0649 0.9952 -0.0730
vn -0.0060 0.9281 -0.3722
vn -0.0976 0.9938 -0.0539
vn -0.0619 0.9366 -0.3448
vn -0.0788 0.9968 0.0124
vn -0.0598 0.9650 -0.2553
vn 0.0514 0.9827 -0.1780
vn 0.1017 0.9618 -0.2541
vn 0.0674 0.9810 -0.1817
vn 0.0018 0.0260 -0.9997
vn 0.6940 0.0473 0.7184
vn 0.0000 0.0671 0.9977
vn 0.0417 0.0236 -0.9989
vn -0.9234 0.3782 -0.0659
vn 0.0000 0.0257 -0.9997
vn -0.0535 0.7147 0.6974
vn -0.3302 0.5770 0.7470
vn -0.1848 0.9828 0.0000
vn -0.0995 0.9950 0.0000
vn 0.2517 0.9600 0.1224
vn -0.5755 0.8178 0.0000
vn -0.0535 0.7147 -0.6974
vn -0.3302 0.5770 -0.7470
vn 0.2517 0.9600 -0.1224
usemtl Base_Color
s off
f 130/1/1 28/2/1 22/3/1 121/4/1
f 3/5/2 5/6/2 9/7/2 7/8/2
f 101/9/3 89/10/3 1/11/3 10/12/3
f 20/13/4 11/14/4 69/15/4 67/16/4 68/17/4 102/18/4 91/19/4
f 12/20/5 11/14/5 20/21/5 21/22/5
f 10/23/6 12/20/6 21/22/6 19/24/6
f 114/25/7 113/26/7 18/27/7 17/28/7
f 8/29/3 6/30/3 13/31/3 15/32/3
f 5/6/8 4/33/8 8/29/8 9/7/8
f 4/33/3 2/34/3 46/35/3 6/30/3 8/29/3
f 3/5/9 5/6/9 4/33/9 2/34/9
f 1/11/10 3/36/10 12/20/10 10/23/10
f 50/37/11 140/38/11 107/39/11 65/40/11 66/41/11 44/42/11
f 3/36/12 2/43/12 11/14/12 12/20/12
f 13/44/13 14/45/13 16/46/13 15/47/13
f 101/9/3 10/12/3 19/48/3 106/49/3
f 7/8/14 9/7/14 16/50/14 14/51/14
f 9/7/15 8/29/15 15/32/15 16/50/15
f 78/52/16 48/53/16 82/54/16 83/55/16
f 3/36/17 1/11/17 17/28/17 18/27/17
f 1/11/18 89/10/18 114/25/18 17/28/18
f 18/56/19 3/5/19 7/8/19
f 109/57/20 97/58/20 113/59/20 18/56/20 7/8/20 14/51/20 45/60/20
f 30/61/21 29/62/21 23/63/21 24/64/21
f 28/65/22 30/61/22 24/64/22 22/66/22
f 121/4/23 22/3/23 25/67/23 126/68/23
f 22/66/24 24/64/24 27/69/24 25/70/24
f 23/71/25 120/72/25 125/73/25 26/74/25
f 24/64/26 23/63/26 26/75/26 27/69/26
f 27/69/27 26/75/27 125/73/27 126/68/27 25/67/27
f 19/24/28 21/22/28 30/61/28 28/65/28
f 21/22/29 20/21/29 29/62/29 30/61/29
f 106/49/30 19/48/30 28/2/30 130/1/30
f 44/42/31 60/76/31 80/77/31 79/78/31
f 14/45/32 35/79/32 52/80/32 45/60/32
f 13/44/33 14/45/33 35/79/33 34/81/33
f 34/81/34 35/79/34 37/82/34 36/83/34
f 36/83/33 37/82/33 39/84/33 38/85/33
f 38/85/35 39/84/35 41/86/35 40/87/35
f 76/88/36 34/81/36 36/83/36 38/85/36 40/87/36 78/52/36 77/89/36
f 52/80/8 50/37/8 48/53/8 49/90/8
f 42/91/37 43/92/37 53/93/37 51/94/37
f 13/44/38 34/81/38 76/88/38 73/95/38
f 45/60/39 52/80/39 142/96/39 109/57/39
f 47/97/40 2/34/40 46/35/40 6/98/40 72/99/40 74/100/40 60/76/40 70/101/40
f 52/80/41 35/79/41 37/82/41 39/84/41 41/86/41 49/90/41
f 58/102/37 56/103/37 140/38/37 50/37/37
f 57/104/37 59/105/37 52/80/37 142/96/37
f 59/105/37 58/102/37 50/37/37 52/80/37
f 57/104/42 142/96/42 165/106/42 55/107/42
f 54/108/37 55/107/37 165/106/37 164/109/37
f 140/38/43 56/103/43 54/108/43 164/109/43
f 56/103/44 57/104/44 55/107/44 54/108/44
f 51/94/33 53/93/33 57/104/33 56/103/33
f 42/91/45 51/94/45 56/103/45 58/102/45
f 53/93/46 43/92/46 59/105/46 57/104/46
f 43/92/8 42/91/8 58/102/8 59/105/8
f 44/42/47 66/41/47 61/110/47 60/76/47
f 60/76/48 61/110/48 71/111/48 63/112/48 47/97/48 70/101/48
f 62/113/49 95/114/49 90/115/49 64/116/49
f 62/113/50 64/116/50 63/112/50 71/111/50 61/110/50
f 61/110/51 66/41/51 65/40/51 62/113/51
f 62/113/52 65/40/52 107/39/52 95/114/52
f 102/18/53 68/17/53 64/116/53 90/115/53
f 64/116/54 68/17/54 67/16/54 63/112/54
f 47/97/55 63/112/55 67/16/55 69/15/55
f 2/43/56 47/97/56 69/15/56 11/14/56
f 6/30/57 13/31/57 73/95/57 72/117/57
f 72/117/58 73/95/58 75/118/58 74/119/58
f 73/95/59 76/88/59 77/89/59 75/118/59
f 75/118/60 77/89/60 86/120/60 85/121/60
f 41/86/61 49/90/61 48/53/61 78/52/61 40/87/61
f 84/122/62 85/121/62 79/78/62 80/77/62
f 82/54/62 81/123/62 86/120/62 83/55/62
f 81/123/62 79/78/62 85/121/62 86/120/62
f 50/37/63 44/42/63 79/78/63 81/123/63
f 74/119/64 75/118/64 85/121/64 84/122/64
f 48/53/63 50/37/63 81/123/63 82/54/63
f 60/76/65 74/100/65 84/124/65 80/77/65
f 77/89/66 78/52/66 83/55/66 86/120/66
f 130/1/1 121/4/1 122/125/1 131/126/1
f 92/127/67 98/128/67 100/129/67 94/130/67
f 101/9/3 103/131/3 87/132/3 89/10/3
f 118/133/68 91/19/68 102/18/68 178/134/68 177/135/68 179/136/68 104/137/68
f 105/138/69 119/139/69 118/140/69 104/137/69
f 103/141/70 117/142/70 119/139/70 105/138/70
f 114/25/7 115/143/7 116/144/7 113/26/7
f 99/145/3 111/146/3 108/147/3 96/148/3
f 94/130/33 100/129/33 99/145/33 93/149/33
f 93/149/3 99/145/3 96/148/3 154/150/3 88/151/3
f 92/127/71 88/151/71 93/149/71 94/130/71
f 87/132/72 103/141/72 105/138/72 92/152/72
f 158/153/73 152/154/73 176/155/73 175/156/73 107/39/73 140/38/73
f 92/152/74 105/138/74 104/137/74 88/157/74
f 108/158/75 111/159/75 112/160/75 110/161/75
f 101/9/3 106/49/3 117/162/3 103/131/3
f 98/128/76 110/163/76 112/164/76 100/129/76
f 100/129/77 112/164/77 111/146/77 99/145/77
f 188/165/78 193/166/78 192/167/78 156/168/78
f 92/152/79 116/144/79 115/143/79 87/132/79
f 87/132/18 115/143/18 114/25/18 89/10/18
f 116/169/19 98/128/19 92/127/19
f 109/57/80 153/170/80 110/163/80 98/128/80 116/169/80 113/59/80 97/58/80
f 133/171/81 124/172/81 123/173/81 132/174/81
f 131/175/82 122/176/82 124/172/82 133/171/82
f 121/4/23 126/68/23 127/177/23 122/125/23
f 122/176/83 127/178/83 129/179/83 124/172/83
f 123/180/25 128/181/25 125/73/25 120/72/25
f 124/172/84 129/179/84 128/182/84 123/173/84
f 129/179/27 127/177/27 126/68/27 125/73/27 128/182/27
f 117/142/85 131/175/85 133/171/85 119/139/85
f 119/139/86 133/171/86 132/174/86 118/140/86
f 106/49/30 130/1/30 131/126/30 117/162/30
f 152/154/87 189/183/87 190/184/87 170/185/87
f 110/161/88 153/170/88 160/186/88 143/187/88
f 108/158/8 141/188/8 143/187/8 110/161/8
f 141/188/89 144/189/89 145/190/89 143/187/89
f 144/189/8 146/191/8 147/192/8 145/190/8
f 146/191/90 148/193/90 149/194/90 147/192/90
f 186/195/91 187/196/91 188/165/91 148/193/91 146/191/91 144/189/91 141/188/91
f 160/186/33 157/197/33 156/168/33 158/153/33
f 150/198/37 159/199/37 161/200/37 151/201/37
f 108/158/92 183/202/92 186/195/92 141/188/92
f 153/170/93 109/57/93 142/96/93 160/186/93
f 155/203/94 180/204/94 170/185/94 184/205/94 182/206/94 96/207/94 154/150/94 88/151/94
f 160/186/95 157/197/95 149/194/95 147/192/95 145/190/95 143/187/95
f 168/208/37 158/153/37 140/38/37 166/209/37
f 167/210/37 142/96/37 160/186/37 169/211/37
f 169/211/37 160/186/37 158/153/37 168/208/37
f 167/210/96 163/212/96 165/106/96 142/96/96
f 162/213/37 164/109/37 165/106/37 163/212/37
f 140/38/97 164/109/97 162/213/97 166/209/97
f 166/209/98 162/213/98 163/212/98 167/210/98
f 159/199/8 166/209/8 167/210/8 161/200/8
f 150/198/99 168/208/99 166/209/99 159/199/99
f 161/200/100 167/210/100 169/211/100 151/201/100
f 151/201/33 169/211/33 168/208/33 150/198/33
f 152/154/101 170/185/101 171/214/101 176/155/101
f 170/185/102 180/204/102 155/203/102 173/215/102 181/216/102 171/214/102
f 172/217/103 174/218/103 90/115/103 95/114/103
f 172/217/104 171/214/104 181/216/104 173/215/104 174/218/104
f 171/214/105 172/217/105 175/156/105 176/155/105
f 172/217/106 95/114/106 107/39/106 175/156/106
f 102/18/107 90/115/107 174/218/107 178/134/107
f 174/218/108 173/215/108 177/135/108 178/134/108
f 155/203/109 179/136/109 177/135/109 173/215/109
f 88/157/110 104/137/110 179/136/110 155/203/110
f 96/148/111 182/219/111 183/202/111 108/147/111
f 182/219/112 184/220/112 185/221/112 183/202/112
f 183/202/113 185/221/113 187/196/113 186/195/113
f 185/221/114 195/222/114 196/223/114 187/196/114
f 149/194/115 148/193/115 188/165/115 156/168/115 157/197/115
f 194/224/62 190/184/62 189/183/62 195/222/62
f 192/167/62 193/166/62 196/223/62 191/225/62
f 191/225/62 196/223/62 195/222/62 189/183/62
f 158/153/116 191/225/116 189/183/116 152/154/116
f 184/220/117 194/224/117 195/222/117 185/221/117
f 156/168/116 192/167/116 191/225/116 158/153/116
f 170/185/118 190/184/118 194/226/118 184/205/118
f 187/196/119 196/223/119 193/166/119 188/165/119
usemtl Window
f 29/62/120 20/21/120 31/227/120 33/228/120
f 23/63/121 29/62/121 33/228/121 32/229/121
f 33/230/122 139/231/122 136/232/122 32/233/122
f 31/234/123 134/235/123 139/231/123 33/230/123
f 20/13/124 91/19/124 134/235/124 31/234/124
f 120/72/125 23/71/125 32/233/125 136/232/125
f 132/174/126 138/236/126 135/237/126 118/140/126
f 123/173/127 137/238/127 138/236/127 132/174/127
f 138/239/122 137/240/122 136/232/122 139/231/122
f 135/241/123 138/239/123 139/231/123 134/235/123
f 118/133/128 135/241/128 134/235/128 91/19/128
f 120/72/125 136/232/125 137/240/125 123/180/125
